
		<svg xmlns="http://www.w3.org/2000/svg" xmlns:xlink="http://www.w3.org/1999/xlink" version="1.1" width="3145.4730309302445" height="872.8382422075445">
			
			<g transform="scale(7.273651546512213) translate(10, 10)">
				<defs id="SvgjsDefs2271"/><g id="SvgjsG2272" featureKey="symbolFeature-0" transform="matrix(1.0204081632653061,0,0,1.0204081632653061,-1.0204081632653061,-1.0204081632653061)" fill="#fff"><path xmlns="http://www.w3.org/2000/svg" d="M95.1,45.2c-1.6,0-3,1-3.6,2.4H58.2v-3.8H69l9-9c0.5,0.2,1,0.3,1.5,0.3c2.1,0,3.8-1.7,3.8-3.8s-1.7-3.8-3.8-3.8  c-2.1,0-3.8,1.7-3.8,3.8c0,0.5,0.1,1,0.3,1.5l-8.2,8.2h-9.7V36l8.2-8.2c0.5,0.2,1,0.3,1.5,0.3c2.1,0,3.8-1.7,3.8-3.8  s-1.7-3.8-3.8-3.8c-2.1,0-3.8,1.7-3.8,3.8c0,0.5,0.1,1,0.3,1.5l-9,9v6.1h-3.8V8.4c1.4-0.6,2.4-1.9,2.4-3.6C53.8,2.7,52.1,1,50,1  c-2.1,0-3.8,1.7-3.8,3.8c0,1.6,1,3,2.4,3.6v32.5h-3.8V31l-9-9c0.2-0.5,0.3-1,0.3-1.5c0-2.1-1.7-3.8-3.8-3.8c-2.1,0-3.8,1.7-3.8,3.8  s1.7,3.8,3.8,3.8c0.5,0,1-0.1,1.5-0.3l8.2,8.2v8.7h-9.7l-8.2-8.2c0.2-0.5,0.3-1,0.3-1.5c0-2.1-1.7-3.8-3.8-3.8s-3.8,1.7-3.8,3.8  s1.7,3.8,3.8,3.8c0.5,0,1-0.1,1.5-0.3l9,9h10.9v3.8H8.4c-0.6-1.4-1.9-2.4-3.6-2.4C2.7,45.2,1,46.9,1,49c0,2.1,1.7,3.8,3.8,3.8  c1.6,0,3-1,3.6-2.4h33.4v3.8h-7l-9,9c-0.5-0.2-1-0.3-1.5-0.3c-2.1,0-3.8,1.7-3.8,3.8c0,2.1,1.7,3.8,3.8,3.8s3.8-1.7,3.8-3.8  c0-0.5-0.1-1-0.3-1.5l8.2-8.2h5.8v10.6l-8.2,8.2c-0.5-0.2-1-0.3-1.5-0.3c-2.1,0-3.8,1.7-3.8,3.8c0,2.1,1.7,3.8,3.8,3.8  c2.1,0,3.8-1.7,3.8-3.8c0-0.5-0.1-1-0.3-1.5l9-9V57.2h3.8v34.4c-1.4,0.6-2.4,1.9-2.4,3.6c0,2.1,1.7,3.8,3.8,3.8  c2.1,0,3.8-1.7,3.8-3.8c0-1.6-1-3-2.4-3.6V57.2h3.8v8l9,9c-0.2,0.5-0.3,1-0.3,1.5c0,2.1,1.7,3.8,3.8,3.8c2.1,0,3.8-1.7,3.8-3.8  s-1.7-3.8-3.8-3.8c-0.5,0-1,0.1-1.5,0.3L58.2,64v-6.8H64l8.2,8.2c-0.2,0.5-0.3,1-0.3,1.5c0,2.1,1.7,3.8,3.8,3.8s3.8-1.7,3.8-3.8  c0-2.1-1.7-3.8-3.8-3.8c-0.5,0-1,0.1-1.5,0.3l-9-9h-7v-3.8h33.4c0.6,1.4,1.9,2.4,3.6,2.4c2.1,0,3.8-1.7,3.8-3.8  C99,46.9,97.3,45.2,95.1,45.2z M79.6,30.2c0.5,0,1,0.4,1,1c0,0.5-0.4,1-1,1s-1-0.4-1-1C78.6,30.6,79.1,30.2,79.6,30.2z M67.9,23.3  c0.5,0,1,0.4,1,1c0,0.5-0.4,1-1,1s-1-0.4-1-1C66.9,23.7,67.3,23.3,67.9,23.3z M31.2,20.4c0-0.5,0.4-1,1-1c0.5,0,1,0.4,1,1  c0,0.5-0.4,1-1,1C31.6,21.4,31.2,20.9,31.2,20.4z M19.4,31.2c0-0.5,0.4-1,1-1c0.5,0,1,0.4,1,1c0,0.5-0.4,1-1,1  C19.9,32.1,19.4,31.7,19.4,31.2z M24.2,67.9c-0.5,0-1-0.4-1-1s0.4-1,1-1c0.5,0,1,0.4,1,1S24.8,67.9,24.2,67.9z M32.1,80.6  c-0.5,0-1-0.4-1-1s0.4-1,1-1c0.5,0,1,0.4,1,1S32.7,80.6,32.1,80.6z M68.8,75.8c0,0.5-0.4,1-1,1s-1-0.4-1-1s0.4-1,1-1  S68.8,75.2,68.8,75.8z M76.7,66.9c0,0.5-0.4,1-1,1s-1-0.4-1-1s0.4-1,1-1S76.7,66.4,76.7,66.9z M55.3,43.8v3.8h-3.8v-3.8H55.3z   M50,3.9c0.5,0,1,0.4,1,1s-0.4,1-1,1c-0.5,0-1-0.4-1-1S49.5,3.9,50,3.9z M44.7,43.8h3.8v3.8h-3.8V43.8z M4.9,50c-0.5,0-1-0.4-1-1  s0.4-1,1-1s1,0.4,1,1S5.4,50,4.9,50z M44.7,54.3v-3.8h3.8v3.8H44.7z M50,96.1c-0.5,0-1-0.4-1-1s0.4-1,1-1c0.5,0,1,0.4,1,1  S50.5,96.1,50,96.1z M55.3,54.3h-3.8v-3.8h3.8V54.3z M95.1,50c-0.5,0-1-0.4-1-1s0.4-1,1-1s1,0.4,1,1S95.7,50,95.1,50z"/></g><g id="SvgjsG2273" featureKey="nameFeature-0" transform="matrix(1.2392240971787518,0,0,1.2392240971787518,123.40517300062598,-3.704739080881609)" fill="#fff"><path d="M11.28 13.48 l8 0 l6.68 20 c0.8 2.44 1.36 3 2.76 3 l1.36 0 l0 3.52 l-14.6 0 l0 -3.52 l1.2 0 c1.2 0 2.2 -0.16 2.2 -0.6 c0 -0.4 -0.04 -0.84 -0.2 -1.44 l-0.84 -2.88 l-8.16 0 l-0.48 1.6 c-0.44 1.4 -0.6 2 -0.6 2.56 c0 0.64 1.4 0.76 2.48 0.76 l1.16 0 l0 3.52 l-11.76 0 l0 -3.52 l1.36 0 c1.4 0 1.96 -0.56 2.76 -3 z M13.68 19.44 l-2.84 8.6 l5.8 0 l-2.88 -8.6 l-0.08 0 z M31.76 24.48 l0 -3.2 l9.44 0 l0 3.2 l0.08 0 c0.8 -1.92 2.32 -3.8 4.68 -3.8 c2.48 0 4.56 1.92 4.56 4.56 c0 1.72 -1.32 3.56 -3.2 3.56 c-1.68 0 -3.2 -0.8 -3.2 -2.64 c0 -1.36 0.76 -2.2 2.08 -2.44 c-0.4 -0.4 -0.76 -0.44 -1.28 -0.44 c-2.08 0 -3.44 2.68 -3.44 4.64 l0 7.16 c0 1.12 0.28 1.72 1.44 1.72 l1.64 0 l0 3.2 l-12.8 0 l0 -3.2 l1.64 0 c1.16 0 1.44 -0.6 1.44 -1.72 l0 -8.88 c0 -1.12 -0.28 -1.72 -1.44 -1.72 l-1.64 0 z  M72.36 31.560000000000002 l-13.2 0 c0 2.8 0.64 5.6 4 5.6 c1.4 0 3.68 -1.08 4.04 -3.44 l4.64 0 c-0.64 4.8 -5.32 6.88 -9.64 6.88 c-6.84 0 -10.12 -3.8 -10.12 -9.96 c0 -6.2 4.4 -9.96 10.12 -9.96 c6.52 0 10.16 4.64 10.16 10.88 z M59.24 28.36 l6.04 0 l0 -1.04 c0 -2.04 -1.08 -3.44 -3 -3.44 c-1.96 0 -3.04 1.4 -3.04 3.44 l0 1.04 z M84.68 23.12 c-1.76 0 -2.32 2.04 -2.32 5 s0.56 4.96 2.32 4.96 s2.32 -2 2.32 -4.96 s-0.56 -5 -2.32 -5 z M81.48000000000002 37.48 l8.12 0 c3.44 0 7 0.84 7 5 c0 5 -5.44 6 -11.68 6 c-5.76 0 -10.08 -0.96 -10.08 -3.92 c0 -1.88 1.8 -2.72 3.36 -3 l0 -0.08 c-1.52 -0.52 -3.04 -1.84 -3.04 -3.6 c0 -2.4 1.32 -3.24 3.44 -4.08 c-1.88 -1.32 -2.72 -3.2 -2.72 -6.08 c0 -4.8 4.68 -7.04 8.88 -7.04 c2.16 0 4.24 0.72 6.08 1.8 c1.24 -1.08 2.72 -1.8 4.4 -1.8 c2.2 0 4.36 1.36 4.36 3.76 c0 1.84 -1.12 2.88 -2.96 2.88 c-1.32 0 -2.2 -1 -2.2 -2.28 c0 -0.88 0.48 -1.48 1.12 -2 c-0.88 -0.16 -2.08 -0.72 -3.44 0.84 c0.72 1.2 1.4 2.68 1.4 4.12 c0 5.24 -4.24 7.56 -9.2 7.56 c-1.36 0 -2.8 -0.16 -4.08 -0.68 c-0.4 0.12 -0.8 0.56 -0.8 1.16 c0 1 1.4 1.44 2.04 1.44 z M79.80000000000001 44.16 c0 1.16 2.68 1.64 6.04 1.64 s6.04 -0.48 6.04 -1.64 c0 -1.4 -2.68 -1.64 -6.04 -1.64 s-6.04 0.24 -6.04 1.64 z M106.16000000000003 13.84 l3.96 0 l0 7.44 l4.92 0 l0 3.2 l-4.92 0 l0 11 c0 0.84 0.44 1.52 1.36 1.52 c1.52 0 1.92 -1.08 1.92 -2.92 l0 -3.12 l3.2 0 l0 3.56 c0 3.92 -1.92 6.08 -6.72 6.08 c-4.12 0 -6.4 -2 -6.4 -6.08 l0 -10.04 l-2.68 0 l0 -3.2 c4 0 5.04 -4.12 5.36 -7.44 z M139.04000000000002 31.560000000000002 l-13.2 0 c0 2.8 0.64 5.6 4 5.6 c1.4 0 3.68 -1.08 4.04 -3.44 l4.64 0 c-0.64 4.8 -5.32 6.88 -9.64 6.88 c-6.84 0 -10.12 -3.8 -10.12 -9.96 c0 -6.2 4.4 -9.96 10.12 -9.96 c6.52 0 10.16 4.64 10.16 10.88 z M125.92000000000003 28.36 l6.04 0 l0 -1.04 c0 -2.04 -1.08 -3.44 -3 -3.44 c-1.96 0 -3.04 1.4 -3.04 3.44 l0 1.04 z M155.16000000000003 33.519999999999996 l3.96 0 c-0.16 5.12 -3.8 7.08 -8.28 7.08 c-5.96 0 -9.92 -3.28 -9.92 -9.96 s4.8 -9.96 9.92 -9.96 c4.28 0 8.28 2.08 8.28 6.48 c0 2.12 -1.32 3.92 -3.56 3.92 c-1.92 0 -3.52 -0.8 -3.52 -2.92 c0 -1.84 1.28 -2.92 3.08 -2.92 c-0.72 -0.88 -1.96 -1.36 -3.2 -1.36 c-2.04 0 -3.92 2.04 -3.92 6.64 s1.16 6.64 3.92 6.64 c2.08 0 3.04 -1.8 3.24 -3.64 z M160.68 13.48 l9.4 0 l0 10.88 l0.08 0 c1.76 -2.56 3.64 -3.68 6.88 -3.68 c4.56 0 6.08 2.64 6.08 6.8 l0 7.6 c0 1.12 0.28 1.72 1.44 1.72 l1.52 0 l0 3.2 l-11.88 0 l0 -3.2 l0.84 0 c1.16 0 1.44 -0.6 1.44 -1.72 l0 -6.88 c0 -2.32 -0.36 -3.92 -3.08 -3.92 c-1.84 0 -3 1.72 -3 3.4 l0 7.4 c0 1.12 0.28 1.72 1.44 1.72 l0.96 0 l0 3.2 l-12.08 0 l0 -3.2 l1.6 0 c1.16 0 1.44 -0.6 1.44 -1.72 l0 -16.68 c0 -1.12 -0.28 -1.72 -1.44 -1.72 l-1.64 0 l0 -3.2 z"/></g><g id="SvgjsG2274" featureKey="sloganFeature-0" transform="matrix(0.6,0,0,0.6,96.5559998512268,73.19199981689454)" fill="#fff"><path d="M8.38 20.28 c-1.48 0 -2.58 -0.7 -3.06 -1.84 l0 1.56 l-4.58 0 l0 -14.86 l4.58 0 l0 5.86 c0.58 -0.98 1.5 -1.78 3.1 -1.78 c2.28 0 4.26 1.74 4.26 5.5 l0 0.16 c0 3.8 -2.04 5.4 -4.3 5.4 z M6.58 16.82 c0.94 0 1.46 -0.68 1.46 -2 l0 -0.16 c0 -1.42 -0.46 -2.08 -1.46 -2.08 c-0.96 0 -1.38 0.78 -1.38 2.06 l0 0.16 c0 1.32 0.44 2.02 1.38 2.02 z M16.586 20 l0 -10.46 l4.58 0 l0 2.18 c0.66 -1.74 1.86 -2.36 3.34 -2.3 l0 4.26 c-2.22 -0.16 -3.34 0.56 -3.34 1.76 l0 4.56 l-4.58 0 z M28.651999999999997 20 l0 -10.46 l4.56 0 l0 10.46 l-4.56 0 z M30.932 9.16 c-1.4 0 -2.42 -0.94 -2.42 -2.24 s1.02 -2.24 2.42 -2.24 c1.38 0 2.42 0.94 2.42 2.24 s-1.04 2.24 -2.42 2.24 z M37.658 20 l0 -10.46 l4.58 0 l0 1.68 c0.6 -1.12 1.72 -2 3.48 -2 c1.94 0 3.28 1.3 3.28 3.78 l0 7 l-4.58 0 l0 -5.84 c0 -0.84 -0.28 -1.3 -1 -1.3 c-0.82 0 -1.18 0.46 -1.18 1.52 l0 5.62 l-4.58 0 z M58.544 23.9 c-3.78 0 -5.58 -1.44 -5.84 -4.14 l4.52 0 c0.1 0.46 0.3 1.06 1.34 1.06 c1.34 0 1.62 -0.86 1.62 -1.68 l0 -1.64 c-0.48 0.98 -1.5 1.72 -3.08 1.72 c-2.28 0 -4.26 -1.62 -4.26 -4.88 l0 -0.16 c0 -3.22 1.96 -4.96 4.22 -4.96 c1.6 0 2.54 0.62 3.12 1.7 l0 -1.38 l4.58 0 l0 9.5 c0 3.16 -2.06 4.86 -6.22 4.86 z M58.924 16.1 c0.96 0 1.38 -0.7 1.38 -1.72 l0 -0.16 c0 -0.96 -0.46 -1.66 -1.4 -1.66 c-0.96 0 -1.42 0.62 -1.42 1.68 l0 0.16 c0 1 0.42 1.7 1.44 1.7 z M76.976 23.44 l1.62 -4.48 l-4.22 -9.42 l4.96 0 l1.64 4.58 l1.54 -4.58 l4.3 0 l-5.52 13.9 l-4.32 0 z M95.962 16.96 c0.96 0 1.36 -0.7 1.36 -2.14 l0 -0.16 c0 -1.42 -0.38 -2.1 -1.36 -2.1 c-0.94 0 -1.4 0.62 -1.4 2.04 l0 0.16 c0 1.5 0.4 2.2 1.4 2.2 z M95.94200000000001 20.28 c-3.34 0 -6.02 -1.82 -6.02 -5.36 l0 -0.16 c0 -3.48 2.66 -5.54 6.04 -5.54 c3.36 0 6 1.98 6 5.4 l0 0.16 c0 3.52 -2.68 5.5 -6.02 5.5 z M109.208 20.28 c-1.98 0 -3.46 -1.3 -3.46 -3.82 l0 -6.92 l4.58 0 l0 6.08 c0 0.84 0.3 1.3 1 1.3 c0.86 0 1.2 -0.46 1.2 -1.52 l0 -5.86 l4.58 0 l0 10.46 l-4.58 0 l0 -1.6 c-0.6 1.14 -1.54 1.88 -3.32 1.88 z M121.41399999999999 20 l0 -10.46 l4.58 0 l0 2.18 c0.66 -1.74 1.86 -2.36 3.34 -2.3 l0 4.26 c-2.22 -0.16 -3.34 0.56 -3.34 1.76 l0 4.56 l-4.58 0 z M139.406 23.44 l0 -13.9 l4.58 0 l0 1.46 c0.58 -0.98 1.5 -1.78 3.1 -1.78 c2.28 0 4.26 1.74 4.26 5.5 l0 0.16 c0 3.8 -2.04 5.4 -4.3 5.4 c-1.48 0 -2.58 -0.7 -3.06 -1.72 l0 4.88 l-4.58 0 z M145.246 16.82 c0.94 0 1.46 -0.68 1.46 -2 l0 -0.16 c0 -1.42 -0.46 -2.08 -1.46 -2.08 c-0.96 0 -1.38 0.78 -1.38 2.06 l0 0.16 c0 1.32 0.44 2.02 1.38 2.02 z M155.252 20 l0 -10.46 l4.58 0 l0 2.18 c0.66 -1.74 1.86 -2.36 3.34 -2.3 l0 4.26 c-2.22 -0.16 -3.34 0.56 -3.34 1.76 l0 4.56 l-4.58 0 z M172.778 16.96 c0.96 0 1.36 -0.7 1.36 -2.14 l0 -0.16 c0 -1.42 -0.38 -2.1 -1.36 -2.1 c-0.94 0 -1.4 0.62 -1.4 2.04 l0 0.16 c0 1.5 0.4 2.2 1.4 2.2 z M172.75799999999998 20.28 c-3.34 0 -6.02 -1.82 -6.02 -5.36 l0 -0.16 c0 -3.48 2.66 -5.54 6.04 -5.54 c3.36 0 6 1.98 6 5.4 l0 0.16 c0 3.52 -2.68 5.5 -6.02 5.5 z M186.504 20.28 c-2.26 0 -4.26 -1.64 -4.26 -5.44 l0 -0.16 c0 -3.76 1.96 -5.46 4.22 -5.46 c1.6 0 2.54 0.62 3.12 1.7 l0 -5.78 l4.58 0 l0 14.86 l-4.58 0 l0 -1.64 c-0.48 1.1 -1.48 1.92 -3.08 1.92 z M188.32399999999998 16.82 c0.96 0 1.38 -0.7 1.38 -2.02 l0 -0.16 c0 -1.28 -0.46 -2.06 -1.4 -2.06 c-0.96 0 -1.42 0.62 -1.42 2.06 l0 0.16 c0 1.32 0.44 2.02 1.44 2.02 z M201.85 20.28 c-1.98 0 -3.46 -1.3 -3.46 -3.82 l0 -6.92 l4.58 0 l0 6.08 c0 0.84 0.3 1.3 1 1.3 c0.86 0 1.2 -0.46 1.2 -1.52 l0 -5.86 l4.58 0 l0 10.46 l-4.58 0 l0 -1.6 c-0.6 1.14 -1.54 1.88 -3.32 1.88 z M219.31599999999997 20.28 c-3.22 0 -5.7 -1.7 -5.7 -5.36 l0 -0.16 c0 -3.64 2.6 -5.54 5.84 -5.54 c2.74 0 5.26 1.16 5.42 4.62 l-4.26 0 c-0.1 -0.62 -0.22 -1.12 -1.04 -1.12 c-0.94 0 -1.3 0.58 -1.3 1.96 l0 0.16 c0 1.44 0.32 2.16 1.36 2.16 c0.74 0 1.12 -0.46 1.2 -1.3 l4.1 0 c-0.06 2.82 -1.82 4.58 -5.62 4.58 z M233.36199999999997 20.28 c-2.62 0 -4.14 -1.14 -4.14 -4.02 l0 -3.74 l-1.14 0 l0 -2.98 l1.14 0 l0 -2.08 l4.58 0 l0 2.08 l1.86 0 l0 2.98 l-1.86 0 l0 3.3 c0 0.62 0.34 0.88 0.94 0.88 c0.32 0 0.56 -0.04 0.88 -0.16 l0 3.4 c-0.52 0.14 -1.34 0.34 -2.26 0.34 z M250.39399999999998 20.28 c-2.62 0 -4.14 -1.14 -4.14 -4.02 l0 -3.74 l-1.14 0 l0 -2.98 l1.14 0 l0 -2.08 l4.58 0 l0 2.08 l1.86 0 l0 2.98 l-1.86 0 l0 3.3 c0 0.62 0.34 0.88 0.94 0.88 c0.32 0 0.56 -0.04 0.88 -0.16 l0 3.4 c-0.52 0.14 -1.34 0.34 -2.26 0.34 z M262.28 16.96 c0.96 0 1.36 -0.7 1.36 -2.14 l0 -0.16 c0 -1.42 -0.38 -2.1 -1.36 -2.1 c-0.94 0 -1.4 0.62 -1.4 2.04 l0 0.16 c0 1.5 0.4 2.2 1.4 2.2 z M262.26 20.28 c-3.34 0 -6.02 -1.82 -6.02 -5.36 l0 -0.16 c0 -3.48 2.66 -5.54 6.04 -5.54 c3.36 0 6 1.98 6 5.4 l0 0.16 c0 3.52 -2.68 5.5 -6.02 5.5 z M278.332 20 l0 -14.86 l4.54 0 l0 14.86 l-4.54 0 z M287.438 20 l0 -10.46 l4.56 0 l0 10.46 l-4.56 0 z M289.718 9.16 c-1.4 0 -2.42 -0.94 -2.42 -2.24 s1.02 -2.24 2.42 -2.24 c1.38 0 2.42 0.94 2.42 2.24 s-1.04 2.24 -2.42 2.24 z M297.064 20 l0 -7.48 l-1.22 0 l0 -2.98 l1.22 0 l0 -0.52 c0 -2.86 1.94 -4.08 4.62 -4.08 c0.72 0 1.32 0.1 1.84 0.22 l0 3.24 c-0.24 -0.06 -0.5 -0.1 -0.88 -0.1 c-0.7 0 -1.02 0.34 -1.02 0.8 l0 0.44 l1.9 0 l0 2.98 l-1.9 0 l0 7.48 l-4.56 0 z M312.95000000000005 20.28 c-3.44 0 -6 -1.86 -6 -5.36 l0 -0.16 c0 -3.48 2.74 -5.54 6.04 -5.54 c3.08 0 5.64 1.72 5.64 5.5 l0 0.98 l-7.08 0 c0.12 1.04 0.72 1.54 1.56 1.54 c0.96 0 1.24 -0.5 1.34 -0.92 l4.22 0 c-0.3 2.48 -2.14 3.96 -5.72 3.96 z M311.57000000000005 13.58 l2.68 0 c-0.02 -0.86 -0.38 -1.5 -1.26 -1.5 c-0.76 0 -1.3 0.48 -1.42 1.5 z M333.162 20.28 c-3.22 0 -5.1 -1.26 -5.16 -3.72 l4.18 0 c0.1 0.56 0.28 0.9 0.96 0.9 c0.52 0 0.78 -0.22 0.78 -0.52 c0 -0.4 -0.36 -0.6 -1.7 -0.74 c-2.84 -0.28 -4.16 -0.92 -4.16 -3.3 c0 -2.5 2.16 -3.68 4.96 -3.68 c2.96 0 4.86 0.92 5.08 3.58 l-4.1 0 c-0.1 -0.46 -0.34 -0.84 -0.9 -0.84 s-0.76 0.24 -0.76 0.54 c0 0.42 0.46 0.62 1.4 0.68 c3.28 0.34 4.64 1.02 4.64 3.28 c0 2.78 -2.14 3.82 -5.22 3.82 z M347.728 20.28 c-3.44 0 -6 -1.86 -6 -5.36 l0 -0.16 c0 -3.48 2.74 -5.54 6.04 -5.54 c3.08 0 5.64 1.72 5.64 5.5 l0 0.98 l-7.08 0 c0.12 1.04 0.72 1.54 1.56 1.54 c0.96 0 1.24 -0.5 1.34 -0.92 l4.22 0 c-0.3 2.48 -2.14 3.96 -5.72 3.96 z M346.348 13.58 l2.68 0 c-0.02 -0.86 -0.38 -1.5 -1.26 -1.5 c-0.76 0 -1.3 0.48 -1.42 1.5 z M357.274 20 l0 -10.46 l4.58 0 l0 2.18 c0.66 -1.74 1.86 -2.36 3.34 -2.3 l0 4.26 c-2.22 -0.16 -3.34 0.56 -3.34 1.76 l0 4.56 l-4.58 0 z M372.29999999999995 20 l-3.86 -10.46 l4.88 0 l1.68 5.68 l1.68 -5.68 l4.28 0 l-3.84 10.46 l-4.82 0 z M384.64599999999996 20 l0 -10.46 l4.56 0 l0 10.46 l-4.56 0 z M386.926 9.16 c-1.4 0 -2.42 -0.94 -2.42 -2.24 s1.02 -2.24 2.42 -2.24 c1.38 0 2.42 0.94 2.42 2.24 s-1.04 2.24 -2.42 2.24 z M398.912 20.28 c-3.22 0 -5.7 -1.7 -5.7 -5.36 l0 -0.16 c0 -3.64 2.6 -5.54 5.84 -5.54 c2.74 0 5.26 1.16 5.42 4.62 l-4.26 0 c-0.1 -0.62 -0.22 -1.12 -1.04 -1.12 c-0.94 0 -1.3 0.58 -1.3 1.96 l0 0.16 c0 1.44 0.32 2.16 1.36 2.16 c0.74 0 1.12 -0.46 1.2 -1.3 l4.1 0 c-0.06 2.82 -1.82 4.58 -5.62 4.58 z M413.83799999999997 20.28 c-3.44 0 -6 -1.86 -6 -5.36 l0 -0.16 c0 -3.48 2.74 -5.54 6.04 -5.54 c3.08 0 5.64 1.72 5.64 5.5 l0 0.98 l-7.08 0 c0.12 1.04 0.72 1.54 1.56 1.54 c0.96 0 1.24 -0.5 1.34 -0.92 l4.22 0 c-0.3 2.48 -2.14 3.96 -5.72 3.96 z M412.45799999999997 13.58 l2.68 0 c-0.02 -0.86 -0.38 -1.5 -1.26 -1.5 c-0.76 0 -1.3 0.48 -1.42 1.5 z M435.00999999999993 20.28 c-3.44 0 -6 -1.86 -6 -5.36 l0 -0.16 c0 -3.48 2.74 -5.54 6.04 -5.54 c3.08 0 5.64 1.72 5.64 5.5 l0 0.98 l-7.08 0 c0.12 1.04 0.72 1.54 1.56 1.54 c0.96 0 1.24 -0.5 1.34 -0.92 l4.22 0 c-0.3 2.48 -2.14 3.96 -5.72 3.96 z M433.62999999999994 13.58 l2.68 0 c-0.02 -0.86 -0.38 -1.5 -1.26 -1.5 c-0.76 0 -1.3 0.48 -1.42 1.5 z M444.5559999999999 20 l0 -10.46 l4.58 0 l0 1.68 c0.6 -1.12 1.72 -2 3.48 -2 c1.94 0 3.28 1.3 3.28 3.78 l0 7 l-4.58 0 l0 -5.84 c0 -0.84 -0.28 -1.3 -1 -1.3 c-0.82 0 -1.18 0.46 -1.18 1.52 l0 5.62 l-4.58 0 z M463.26199999999994 20.28 c-1.86 0 -3.56 -0.92 -3.56 -3.18 c0 -2.48 1.82 -3.42 5.72 -3.42 l0.74 0 l0 -0.06 c0 -0.66 -0.04 -1.3 -0.94 -1.3 c-0.74 0 -0.88 0.58 -0.92 0.9 l-4.24 0 c0.14 -2.58 2.16 -4 5.44 -4 c3.34 0 5.18 1.36 5.18 4.06 l0 6.72 l-4.4 0 l0 -1.18 c-0.36 0.66 -1.26 1.46 -3.02 1.46 z M465.0419999999999 17.28 c0.66 0 1.12 -0.4 1.12 -0.94 l0 -0.34 l-0.7 0 c-1.08 0 -1.26 0.2 -1.26 0.7 c0 0.36 0.32 0.58 0.84 0.58 z M482.5679999999999 20.28 c-1.48 0 -2.58 -0.7 -3.06 -1.84 l0 1.56 l-4.58 0 l0 -14.86 l4.58 0 l0 5.86 c0.58 -0.98 1.5 -1.78 3.1 -1.78 c2.28 0 4.26 1.74 4.26 5.5 l0 0.16 c0 3.8 -2.04 5.4 -4.3 5.4 z M480.7679999999999 16.82 c0.94 0 1.46 -0.68 1.46 -2 l0 -0.16 c0 -1.42 -0.46 -2.08 -1.46 -2.08 c-0.96 0 -1.38 0.78 -1.38 2.06 l0 0.16 c0 1.32 0.44 2.02 1.38 2.02 z M490.89399999999995 20 l0 -14.86 l4.54 0 l0 14.86 l-4.54 0 z M505.41999999999996 20.28 c-3.44 0 -6 -1.86 -6 -5.36 l0 -0.16 c0 -3.48 2.74 -5.54 6.04 -5.54 c3.08 0 5.64 1.72 5.64 5.5 l0 0.98 l-7.08 0 c0.12 1.04 0.72 1.54 1.56 1.54 c0.96 0 1.24 -0.5 1.34 -0.92 l4.22 0 c-0.3 2.48 -2.14 3.96 -5.72 3.96 z M504.03999999999996 13.58 l2.68 0 c-0.02 -0.86 -0.38 -1.5 -1.26 -1.5 c-0.76 0 -1.3 0.48 -1.42 1.5 z M518.826 20.28 c-2.26 0 -4.26 -1.64 -4.26 -5.44 l0 -0.16 c0 -3.76 1.96 -5.46 4.22 -5.46 c1.6 0 2.54 0.62 3.12 1.7 l0 -5.78 l4.58 0 l0 14.86 l-4.58 0 l0 -1.64 c-0.48 1.1 -1.48 1.92 -3.08 1.92 z M520.646 16.82 c0.96 0 1.38 -0.7 1.38 -2.02 l0 -0.16 c0 -1.28 -0.46 -2.06 -1.4 -2.06 c-0.96 0 -1.42 0.62 -1.42 2.06 l0 0.16 c0 1.32 0.44 2.02 1.44 2.02 z"/></g>
			</g>
		</svg>
	